<?xml version="1.0" encoding="utf-8"?>
<!-- Generator: Adobe Illustrator 19.0.0, SVG Export Plug-In . SVG Version: 6.00 Build 0)  -->
<svg version="1.1" id="Layer_1" xmlns="http://www.w3.org/2000/svg" xmlns:xlink="http://www.w3.org/1999/xlink" x="0px" y="0px"
	 viewBox="0 0 90 65.1" style="enable-background:new 0 0 90 65.1;" xml:space="preserve">
<style type="text/css">
	.st0{fill:#EE3B44;}
	.st1{fill:#134B8E;}
</style>
<g id="XMLID_1303_">
	<g id="XMLID_1428_">
		<path id="XMLID_1434_" class="st0" d="M66,54.6c-6,6-15.8,6-21.8,0c-1.2-1.2-3.1-1.2-4.3,0c-1.2,1.2-1.2,3.1,0,4.3
			c4.2,4.2,9.7,6.3,15.1,6.3c5.5,0,11-2.1,15.1-6.3c1.2-1.2,1.2-3.1,0-4.3C69.1,53.4,67.2,53.4,66,54.6z"/>
		<circle id="XMLID_1433_" class="st0" cx="72.8" cy="20.1" r="2.8"/>
		<circle id="XMLID_1431_" class="st0" cx="64.2" cy="20.1" r="2.8"/>
		<circle id="XMLID_1430_" class="st0" cx="15.5" cy="20.1" r="2.8"/>
		<circle id="XMLID_1429_" class="st0" cx="6.9" cy="20.1" r="2.8"/>
	</g>
	<g id="XMLID_1304_">
		<path id="XMLID_1425_" class="st1" d="M41.7,25.2h-3.9c-1.9,0-3.8,0.5-5.4,1.4v-6.3c0-1.7-1.3-3-3-3c-1.7,0-3,1.3-3,3v16.3
			c0,1.9,0.5,3.8,1.3,5.4c-3-0.4-5.4-3-5.4-6.2v-7.6c0-1.7-1.3-3-3-3H3c-1.7,0-3,1.3-3,3c0,1.7,1.3,3,3,3h13.4v4.6
			c0,6.8,5.5,12.3,12.3,12.3H37c0.1,0,0.2,0,0.3,0c0.2,0,0.3,0,0.5,0h3.9c6.3,0,11.4-5.2,11.4-11.4C53.1,30.3,48,25.2,41.7,25.2z
			 M41.7,42h-3.9c-3,0-5.4-2.4-5.4-5.4c0-3,2.4-5.4,5.4-5.4h0.3c-1.3,0.6-2.1,1.9-2.1,3.4c0,2.1,1.7,3.8,3.8,3.8
			c0.5,0,0.9-0.1,1.4-0.3c-0.3-0.4-0.5-0.9-0.5-1.4c0-1.2,1-2.2,2.2-2.2c0.3,0,0.5,0,0.7,0.1c0,0,0-0.1,0-0.1c0-1.5-0.9-2.8-2.1-3.4
			h0.3c3,0,5.4,2.4,5.4,5.4C47.1,39.6,44.7,42,41.7,42z"/>
		<path id="XMLID_1412_" class="st1" d="M87,9.3c-1.7,0-3,1.3-3,3v23.4c0,3.1-2.3,5.7-5.3,6.2c0.8-1.6,1.3-3.4,1.3-5.3
			c0-6.3-5.1-11.4-11.4-11.4c-6.3,0-11.4,5.1-11.4,11.4c0,6.3,5.1,11.4,11.4,11.4c0.3,0,0.6,0,0.9,0c0,0,0,0,0,0h8.2
			C84.5,48,90,42.5,90,35.7V12.4C90,10.7,88.7,9.3,87,9.3z M68.6,42c-3,0-5.4-2.4-5.4-5.4c0-1.9,1-3.6,2.6-4.6c-0.6,0.7-1,1.6-1,2.6
			c0,2.1,1.7,3.8,3.8,3.8c0.5,0,0.9-0.1,1.4-0.3c-0.3-0.4-0.5-0.9-0.5-1.4c0-1.2,1-2.2,2.2-2.2c0.3,0,0.5,0,0.7,0.1c0,0,0-0.1,0-0.1
			c0-1.1-0.5-2.1-1.2-2.8c1.7,0.9,2.9,2.7,2.9,4.8C74,39.6,71.6,42,68.6,42z"/>
		<path id="XMLID_1405_" class="st1" d="M27.4,7.2c0.2,0,0.3-0.1,0.4-0.2C27.9,6.9,28,6.8,28,6.6c0-0.2-0.1-0.3-0.2-0.4
			s-0.2-0.2-0.4-0.2c-0.2,0-0.3,0.1-0.4,0.2s-0.2,0.2-0.2,0.4c0,0.2,0.1,0.3,0.2,0.4C27.2,7.1,27.3,7.2,27.4,7.2z"/>
		<g id="XMLID_1324_">
			<rect id="XMLID_1404_" class="st1" width="1.1" height="7.3"/>
			<path id="XMLID_1401_" class="st1" d="M6.1,4.4c0,0.7,0,1-0.1,1.1C5.9,5.8,5.8,6,5.6,6.1C5.4,6.3,5.1,6.3,4.8,6.3
				C4.5,6.3,4.2,6.3,4,6.1C3.8,6,3.7,5.8,3.6,5.5c0-0.1-0.1-0.4-0.1-1.1V1.9H2.4v2.6c0,0.7,0.1,1.3,0.3,1.7c0.2,0.4,0.4,0.7,0.8,0.9
				c0.4,0.2,0.8,0.3,1.3,0.3c0.5,0,1-0.1,1.3-0.3c0.4-0.2,0.6-0.5,0.8-0.9c0.2-0.4,0.3-0.9,0.3-1.6V1.9H6.1V4.4z"/>
			<path id="XMLID_1379_" class="st1" d="M13,2.4c-0.2-0.2-0.3-0.3-0.5-0.4c-0.4-0.2-0.8-0.3-1.2-0.3c-0.8,0-1.4,0.3-2,0.8
				c-0.5,0.5-0.8,1.2-0.8,2c0,0.8,0.3,1.5,0.8,2c0.5,0.5,1.2,0.8,1.9,0.8c0.4,0,0.8-0.1,1.2-0.3C12.6,7,12.8,6.9,13,6.8v2.8H14V1.9
				H13V2.4z M12.8,5.5c-0.1,0.3-0.4,0.5-0.6,0.6c-0.5,0.3-1.2,0.3-1.7,0C10.2,6,10,5.8,9.8,5.5C9.6,5.2,9.6,4.9,9.6,4.6
				c0-0.3,0.1-0.6,0.2-0.9c0.2-0.3,0.4-0.5,0.6-0.6c0.3-0.2,0.6-0.2,0.9-0.2c0.5,0,0.9,0.2,1.2,0.5C12.8,3.7,13,4.1,13,4.6
				C13,4.9,12.9,5.2,12.8,5.5z"/>
			<polygon id="XMLID_1378_" class="st1" points="17.2,0.1 16.1,0.1 16.1,1.9 15.3,1.9 15.3,2.9 16.1,2.9 16.1,7.3 17.2,7.3 
				17.2,2.9 18.7,2.9 18.7,1.9 17.2,1.9 			"/>
			<path id="XMLID_1371_" class="st1" d="M23.5,2.4c-0.2-0.2-0.3-0.3-0.5-0.4c-0.4-0.2-0.8-0.3-1.2-0.3c-0.8,0-1.4,0.3-2,0.8
				c-0.5,0.5-0.8,1.2-0.8,2c0,0.8,0.3,1.5,0.8,2c0.5,0.5,1.2,0.8,1.9,0.8c0.4,0,0.8-0.1,1.2-0.3c0.2-0.1,0.4-0.2,0.6-0.4v0.5h1.1
				V1.9h-1.1V2.4z M23.4,5.5C23.2,5.8,23,6,22.7,6.1c-0.5,0.3-1.2,0.3-1.7,0c-0.3-0.2-0.5-0.4-0.6-0.7c-0.2-0.3-0.2-0.6-0.2-0.9
				c0-0.3,0.1-0.6,0.2-0.9c0.2-0.3,0.4-0.5,0.6-0.6c0.3-0.2,0.6-0.2,0.9-0.2c0.5,0,0.9,0.2,1.2,0.5c0.3,0.3,0.5,0.8,0.5,1.3
				C23.6,4.9,23.5,5.2,23.4,5.5z"/>
			<path id="XMLID_1370_" class="st1" d="M33.6,5.6c-0.4,0.5-0.9,0.8-1.6,0.8c-0.4,0-0.7-0.1-1-0.2c-0.3-0.2-0.5-0.4-0.7-0.7
				c-0.2-0.3-0.2-0.6-0.2-0.9c0-0.5,0.2-0.9,0.5-1.2C31,3,31.4,2.8,32,2.8c0.7,0,1.2,0.3,1.6,0.8l0.1,0.2l0.9-0.5L34.5,3
				c-0.2-0.3-0.4-0.5-0.6-0.7C33.6,2.2,33.4,2,33,1.9c-0.3-0.1-0.7-0.2-1-0.2c-0.6,0-1.1,0.1-1.5,0.4c-0.5,0.2-0.8,0.6-1.1,1
				C29.2,3.6,29,4.1,29,4.6c0,0.8,0.3,1.4,0.8,2c0.6,0.5,1.3,0.8,2.1,0.8c0.5,0,1-0.1,1.5-0.3c0.4-0.2,0.8-0.5,1-0.9L34.6,6
				l-0.9-0.6L33.6,5.6z"/>
			<path id="XMLID_1344_" class="st1" d="M38.4,1.8c-0.8,0-1.5,0.3-2.1,0.9c-0.5,0.5-0.7,1.2-0.7,1.9c0,0.7,0.3,1.4,0.8,2
				c0.5,0.6,1.2,0.8,2,0.8c0.8,0,1.5-0.3,2-0.8c0.5-0.6,0.8-1.2,0.8-2c0-0.7-0.2-1.4-0.7-1.9C39.9,2.1,39.2,1.8,38.4,1.8z M39.8,5.5
				c-0.2,0.3-0.4,0.5-0.6,0.6c-0.5,0.3-1.2,0.3-1.7,0C37.2,6,37,5.8,36.9,5.5c-0.2-0.3-0.2-0.6-0.2-0.9c0-0.5,0.2-0.9,0.5-1.3
				c0.3-0.3,0.7-0.5,1.2-0.5c0.5,0,0.9,0.2,1.2,0.5c0.3,0.3,0.5,0.8,0.5,1.3C40.1,4.9,40,5.2,39.8,5.5z"/>
			<path id="XMLID_1327_" class="st1" d="M50,2.9c-0.1-0.3-0.4-0.6-0.7-0.8c-0.6-0.4-1.5-0.4-2.2,0c-0.2,0.1-0.4,0.3-0.6,0.6
				c-0.1-0.1-0.1-0.2-0.2-0.3C46.2,2.2,46,2,45.7,1.9c-0.6-0.3-1.3-0.2-1.9,0.2c-0.1,0.1-0.2,0.2-0.3,0.3V1.9h-1.1v5.4h1.1V5
				c0-0.6,0.1-1,0.2-1.3c0.1-0.3,0.3-0.5,0.5-0.6c0.4-0.3,0.9-0.3,1.2-0.1c0.1,0.1,0.2,0.2,0.3,0.4c0,0.1,0.1,0.4,0.1,1.1v2.7h1.1
				V5.1c0-0.7,0.1-1.2,0.2-1.4c0.1-0.3,0.3-0.5,0.5-0.6c0.2-0.2,0.4-0.2,0.7-0.2c0.2,0,0.4,0,0.5,0.1C48.9,3.1,49,3.2,49,3.4
				c0,0.1,0.1,0.4,0.1,1v2.9h1.1V4.4C50.2,3.7,50.2,3.2,50,2.9z"/>
		</g>
		<path id="XMLID_1305_" class="st1" d="M86.4,0.1c-2,0-3.6,1.6-3.6,3.6c0,0.9,0.4,1.8,1,2.5h-3.6v1.1l6.3,0c2,0,3.6-1.6,3.6-3.6
			C90,1.7,88.4,0.1,86.4,0.1z M86.4,1.2c1.4,0,2.5,1.1,2.5,2.5s-1.1,2.5-2.5,2.5c-1.4,0-2.5-1.1-2.5-2.5S85,1.2,86.4,1.2z"/>
	</g>
</g>
</svg>
